<?xml version="1.0" encoding="iso-8859-1"?><!DOCTYPE svg PUBLIC "-//W3C//DTD SVG 1.1//EN" "http://www.w3.org/Graphics/SVG/1.1/DTD/svg11.dtd"><svg viewBox="0 0 612 612" xmlns="http://www.w3.org/2000/svg" xmlns:xlink="http://www.w3.org/1999/xlink"><style>:root>svg{display:none}:root>svg:target{display:block}</style><svg viewBox="0 0 284.935 284.936" id="arrow-right" xmlns="http://www.w3.org/2000/svg"><path d="M222.701 135.9L89.652 2.857C87.748.955 85.557 0 83.084 0c-2.474 0-4.664.955-6.567 2.857L62.244 17.133c-1.906 1.903-2.855 4.089-2.855 6.567 0 2.478.949 4.664 2.855 6.567l112.204 112.204L62.244 254.677c-1.906 1.903-2.855 4.093-2.855 6.564 0 2.477.949 4.667 2.855 6.57l14.274 14.271c1.903 1.905 4.093 2.854 6.567 2.854 2.473 0 4.663-.951 6.567-2.854l133.042-133.044c1.902-1.902 2.854-4.093 2.854-6.567s-.945-4.664-2.847-6.571z"/></svg><svg viewBox="0 0 512.001 512.001" id="close" xmlns="http://www.w3.org/2000/svg"><path d="M284.286 256.002L506.143 34.144c7.811-7.811 7.811-20.475 0-28.285-7.811-7.81-20.475-7.811-28.285 0L256 227.717 34.143 5.859c-7.811-7.811-20.475-7.811-28.285 0-7.81 7.811-7.811 20.475 0 28.285l221.857 221.857L5.858 477.859c-7.811 7.811-7.811 20.475 0 28.285a19.938 19.938 0 0014.143 5.857 19.94 19.94 0 0014.143-5.857L256 284.287l221.857 221.857c3.905 3.905 9.024 5.857 14.143 5.857s10.237-1.952 14.143-5.857c7.811-7.811 7.811-20.475 0-28.285L284.286 256.002z"/></svg><svg viewBox="0 0 12 21.03" id="down" xmlns="http://www.w3.org/2000/svg"><path class="ccls-1" d="M.307 15.72l4.983 5a.977.977 0 001.409 0l4.983-5a1 1 0 00-.7-1.71H6.995v-13a1 1 0 10-1.993 0v13H1.016a1 1 0 00-.709 1.71zm8.265.3L6 18.6l-2.578-2.58h5.155z"/></svg><svg viewBox="0 0 612 612" id="down-arrow" xmlns="http://www.w3.org/2000/svg"><path d="M604.501 134.782c-9.999-10.05-26.222-10.05-36.221 0L306.014 422.558 43.721 134.782c-9.999-10.05-26.223-10.05-36.222 0s-9.999 26.35 0 36.399l279.103 306.241c5.331 5.357 12.422 7.652 19.386 7.296 6.988.356 14.055-1.939 19.386-7.296l279.128-306.268c9.998-10.048 9.998-26.322-.001-36.372z"/></svg><svg viewBox="-5 0 394 394" id="filter" xmlns="http://www.w3.org/2000/svg"><path d="M367.82 0H16.56A16.502 16.502 0 001.848 8.96a16.732 16.732 0 001.3 17.415L131.836 207.66c.043.063.09.121.133.184a36.751 36.751 0 017.219 21.816v147.8a16.448 16.448 0 004.773 11.688A16.45 16.45 0 00155.617 394a16.94 16.94 0 006.48-1.3l72.313-27.571c6.477-1.98 10.778-8.094 10.778-15.453V229.66a36.774 36.774 0 017.214-21.816c.043-.063.09-.121.133-.184L381.227 26.371a16.717 16.717 0 001.3-17.406A16.492 16.492 0 00367.82 0zm0 0"/></svg><svg viewBox="0 0 22.354 22.354" id="minus" xmlns="http://www.w3.org/2000/svg"><path d="M0 8.61h22.354v5.133H0z"/></svg><svg viewBox="0 0 492.004 492.004" id="next-arrow" xmlns="http://www.w3.org/2000/svg"><path d="M484.14 226.886L306.46 49.202c-5.072-5.072-11.832-7.856-19.04-7.856-7.216 0-13.972 2.788-19.044 7.856l-16.132 16.136c-5.068 5.064-7.86 11.828-7.86 19.04 0 7.208 2.792 14.2 7.86 19.264L355.9 207.526H26.58C11.732 207.526 0 219.15 0 234.002v22.812c0 14.852 11.732 27.648 26.58 27.648h330.496L252.248 388.926c-5.068 5.072-7.86 11.652-7.86 18.864 0 7.204 2.792 13.88 7.86 18.948l16.132 16.084c5.072 5.072 11.828 7.836 19.044 7.836 7.208 0 13.968-2.8 19.04-7.872l177.68-177.68c5.084-5.088 7.88-11.88 7.86-19.1.016-7.244-2.776-14.04-7.864-19.12z"/></svg><svg viewBox="0 0 349.03 349.031" id="plus" xmlns="http://www.w3.org/2000/svg"><path d="M349.03 141.226v66.579a9.078 9.078 0 01-9.079 9.079H216.884v123.067a9.077 9.077 0 01-9.079 9.079h-66.579c-5.009 0-9.079-4.061-9.079-9.079V216.884H9.079A9.08 9.08 0 010 207.805v-66.579a9.079 9.079 0 019.079-9.079h123.068V9.079c0-5.018 4.069-9.079 9.079-9.079h66.579a9.078 9.078 0 019.079 9.079v123.068h123.067a9.077 9.077 0 019.079 9.079z"/></svg><svg viewBox="0 0 492 492" id="prev-arrow" xmlns="http://www.w3.org/2000/svg"><path d="M464.344 207.418l.768.168H135.888l103.496-103.724c5.068-5.064 7.848-11.924 7.848-19.124 0-7.2-2.78-14.012-7.848-19.088L223.28 49.538c-5.064-5.064-11.812-7.864-19.008-7.864-7.2 0-13.952 2.78-19.016 7.844L7.844 226.914C2.76 231.998-.02 238.77 0 245.974c-.02 7.244 2.76 14.02 7.844 19.096l177.412 177.412c5.064 5.06 11.812 7.844 19.016 7.844 7.196 0 13.944-2.788 19.008-7.844l16.104-16.112c5.068-5.056 7.848-11.808 7.848-19.008 0-7.196-2.78-13.592-7.848-18.652L134.72 284.406h329.992c14.828 0 27.288-12.78 27.288-27.6v-22.788c0-14.82-12.828-26.6-27.656-26.6z"/></svg><svg viewBox="0 0 19.481 19.481" id="star" xmlns="http://www.w3.org/2000/svg"><path d="M10.201.758l2.478 5.865 6.344.545a.5.5 0 01.285.876l-4.812 4.169 1.442 6.202a.5.5 0 01-.745.541l-5.452-3.288-5.452 3.288a.5.5 0 01-.745-.541l1.442-6.202-4.813-4.17a.5.5 0 01.285-.876l6.344-.545L9.28.758a.5.5 0 01.921 0z"/></svg><svg viewBox="0 0 97.285 97.285" id="up-arrow" xmlns="http://www.w3.org/2000/svg"><path d="M83.952 34.479L50.056.585a2 2 0 00-2.828 0L13.333 34.479a2 2 0 000 2.828l9.03 9.031a1.999 1.999 0 002.828 0l14.534-14.532v63.478a2 2 0 002 2H55.56a2 2 0 002-2V31.807l14.532 14.532c.75.75 2.078.75 2.828 0l9.031-9.031a2 2 0 00.001-2.829z"/></svg></svg>